<?xml version="1.0" encoding="utf-8"?>
<!-- Generator: Adobe Illustrator 27.0.0, SVG Export Plug-In . SVG Version: 6.00 Build 0)  -->
<svg version="1.1" id="Layer_1" xmlns="http://www.w3.org/2000/svg" xmlns:xlink="http://www.w3.org/1999/xlink" x="0px" y="0px"
	 viewBox="0 0 64 80" style="enable-background:new 0 0 64 80;" xml:space="preserve">
<style type="text/css">
	.st0{fill:#E0FFFB;}
</style>
<g>
	<path class="st0" d="M20.6,50.7c0.5,0.4,0.8,1.1,0.8,1.7c0,0.7-0.2,1.3-0.7,1.8c-0.4,0.5-1.1,0.8-1.8,0.8c-0.7,0-1.3-0.2-1.8-0.7
		c-1.1-1-2.1-2.1-3-3.3c-0.4-0.5-0.6-1.2-0.5-1.9c0.1-0.7,0.4-1.2,1-1.6c0.5-0.4,1.2-0.6,1.8-0.5s1.2,0.4,1.6,1
		C18.9,48.9,19.7,49.8,20.6,50.7z"/>
	<path class="st0" d="M47.3,39.9c0.6,0.4,0.9,0.9,1.1,1.6c0.1,0.7,0,1.3-0.4,1.9c-0.4,0.5-0.9,0.9-1.6,1.1c-0.7,0.1-1.3,0-1.9-0.4
		l-10.8-7.2c-0.5-0.3-0.8-1-0.8-1.6V20.9c0-0.7,0.3-1.3,0.7-1.8c0.5-0.5,1.1-0.7,1.8-0.7c0.7,0,1.3,0.3,1.8,0.7
		c0.5,0.5,0.7,1.1,0.7,1.8v11.7c0,0.6,0.4,1.2,0.8,1.6L47.3,39.9z"/>
	<path class="st0" d="M9.1,31.4c0.5-5.1,3.2-10.8,7.6-15.2c5-5,11.8-7.8,18.8-7.8c7,0,13.8,2.8,18.8,7.8c5,5,7.8,11.8,7.8,18.8
		c0,7-2.8,13.8-7.8,18.8c-5,5-11.8,7.8-18.8,7.8c-3.5,0-7.1-0.7-10.4-2.1c-0.6-0.2-1.1-0.7-1.3-1.4c-0.2-0.6-0.2-1.3,0-1.9
		c0.3-0.6,0.8-1.1,1.4-1.3c0.6-0.2,1.3-0.2,1.9,0c2.7,1.1,5.5,1.7,8.4,1.7c5.7,0,11.2-2.3,15.3-6.3c4-4,6.3-9.5,6.3-15.3
		c0-5.7-2.3-11.2-6.3-15.3c-4-4-9.5-6.3-15.3-6.3c-5.7,0-11.2,2.3-15.3,6.3c-3.5,3.5-5.6,8-6.1,11.8c-0.1,0.5,0.2,0.7,0.6,0.3
		l2.1-2.1c0.5-0.5,1.1-0.7,1.8-0.7c0.7,0,1.3,0.3,1.8,0.7c0.5,0.5,0.7,1.1,0.7,1.8c0,0.7-0.3,1.3-0.7,1.8l-7.4,7.4
		c-0.8,0.8-2,0.8-2.8,0l-7.4-7.4C2.3,32.7,2,32.1,2,31.4c0-0.7,0.3-1.3,0.7-1.8c0.5-0.5,1.1-0.7,1.8-0.7s1.3,0.3,1.8,0.7l2,2
		C8.6,32,9,31.9,9.1,31.4z"/>
</g>
</svg>
